# xmcd
#
# Track frame offsets:
#	150
#	20430
#	31178
#	39814
#	53885
#	65194
#	77201
#	91262
#	100295
#	109389
#	130061
#	142915
#	162352
#	185453
#	199591
#	213451
#	226566
#	237263
#	246378
#	262102
#	275375
#
# Disc length: 3865 seconds
#
# Revision: 0
# Processed by: cddbd v1.4PL0 Copyright (c) Steve Scherf et al.
# Submitted via: audiograbber 1.81.01
#
DISCID=230f1715
DTITLE=Hannes Wader - Der Volkssänger
DYEAR=1999
DGENRE=Folk
TTITLE0=De Groffschmitt
TTITLE1=Min Jehann
TTITLE2=Lütt Anna-Susanna
TTITLE3=Dar weer een mal ne lüttge Buurdeern
TTITLE4=Dat du min Leevste büst
TTITLE5=He sä mi so vel
TTITLE6=De Moel
TTITLE7=Keen Graff is so breet
TTITLE8=Lütt Matten
TTITLE9=Hardleed
TTITLE10=Trina, komm mol vor de Doer
TTITLE11=Hamborger Veermaster
TTITLE12=Magelhan
TTITLE13=Shenandoah
TTITLE14=De "Hoffnung"
TTITLE15=De Kock
TTITLE16=De Untofredene Seemann
TTITLE17=Hein Flott
TTITLE18=Käpten Kidd
TTITLE19=Krüüzfahrt
TTITLE20=Reine Natur
EXTD=
EXTT0=
EXTT1=
EXTT2=
EXTT3=
EXTT4=
EXTT5=
EXTT6=
EXTT7=
EXTT8=
EXTT9=
EXTT10=
EXTT11=
EXTT12=
EXTT13=
EXTT14=
EXTT15=
EXTT16=
EXTT17=
EXTT18=
EXTT19=
EXTT20=
PLAYORDER=
